<svg width="76" height="76" viewBox="0 0 76 76" fill="none" xmlns="http://www.w3.org/2000/svg">
<path d="M14.5112 15.2891C14.5112 12.5276 16.7498 10.2891 19.5112 10.2891H59.489C60.5936 10.2891 61.489 11.1845 61.489 12.2891V57.1263L14.5112 61.8015V15.2891Z" stroke="black" stroke-width="2"/>
<path d="M14.5112 62.0929C14.5112 59.5045 16.6095 57.4062 19.1979 57.4062H61.489V66.7795H19.1979C16.6095 66.7795 14.5112 64.6812 14.5112 62.0929Z" fill="#F1F1F1" stroke="black" stroke-width="2"/>
<rect x="21.1113" y="60.8008" width="41.3778" height="1.68889" fill="black"/>
<rect x="21.1111" y="9.28906" width="48.1333" height="1.68889" transform="rotate(90 21.1111 9.28906)" fill="black"/>
<rect x="26.7554" y="16.7891" width="28.203" height="8.5609" rx="1" stroke="black" stroke-width="2"/>
<path d="M30.6052 68.473L31.1588 69.248L30.6052 68.473L26.3335 71.5243V61.8008H36.1557V71.5243L31.884 68.473C31.884 68.473 31.884 68.473 31.884 68.473C31.5015 68.1998 30.9877 68.1998 30.6052 68.473ZM36.9463 72.089L36.9457 72.0885L36.9463 72.089Z" fill="#F1F1F1" stroke="black" stroke-width="2"/>
</svg>
