<svg width="191" height="188" viewBox="0 0 191 188" fill="none" xmlns="http://www.w3.org/2000/svg">
<path d="M80.6774 181.58L82.2841 165.108L78.4553 164.014L74.4511 171.244C73.8218 172.437 73.2871 173.542 72.704 174.657L72.6194 174.633C72.7795 173.397 72.891 172.171 73.0127 170.833L73.5477 162.612L69.6555 161.5L62.1259 176.279L65.1086 177.131L68.5949 169.868C69.3095 168.31 70.0367 166.711 70.7701 165.09L70.8758 165.12C70.7136 166.904 70.5302 168.682 70.3929 170.382L69.9527 178.515L72.618 179.277L76.6966 172.183C77.517 170.656 78.3499 169.086 79.1679 167.49L79.2526 167.514C78.9845 169.268 78.7627 170.943 78.4947 172.697L77.4833 180.667L80.6774 181.58Z" fill="#666666"/>
<path d="M53.9723 172.235L62.4942 158.364L53.6894 153.156L52.2614 155.48L58.2638 159.031L55.9836 162.742L51.0605 159.83L49.6325 162.154L54.5556 165.067L52.5864 168.272L46.7922 164.844L45.3758 167.15L53.9723 172.235Z" fill="#666666"/>
<path d="M35.7438 142.328L38.1737 138.765L35.9185 136.207L26.9708 150.671L29.5024 153.542L45.3613 146.916L43.1788 144.441L39.2357 146.288L35.7438 142.328ZM34.2807 144.494L36.8415 147.398L35.1629 148.188C33.5369 148.905 31.8226 149.754 30.1877 150.594L30.1295 150.528C31.1365 149.01 32.2856 147.486 33.2424 146.01L34.2807 144.494Z" fill="#666666"/>
<path d="M29.3867 124.98L27.6706 121.782L23.5475 128.195C22.0184 126.88 20.1264 126.471 17.9177 127.612C14.5754 129.339 14.8083 132.239 16.4309 135.263L19.1143 140.265L33.5783 132.793L32.039 129.924L26.5661 132.751L25.4948 130.754L29.3867 124.98ZM24.2792 133.933L19.8618 136.215L18.8634 134.353C17.8649 132.492 17.8622 131.231 19.4258 130.423C20.9895 129.616 22.2823 130.21 23.2807 132.071L24.2792 133.933Z" fill="#666666"/>
<path d="M10.3667 121.643L26.1147 117.515L23.4278 107.645L20.789 108.336L22.6207 115.065L18.407 116.17L16.9047 110.651L14.2658 111.342L15.7681 116.861L12.1291 117.815L10.3609 111.32L7.74333 112.006L10.3667 121.643Z" fill="#666666"/>
<path d="M22.7716 88.8519C22.8945 86.7214 22.2025 84.9643 20.6763 83.5354L18.5566 85.1362C19.4504 86.0672 20.0473 87.1801 19.9662 88.5858C19.818 91.1555 17.591 92.7063 14.0544 92.5097C10.5618 92.3155 8.55953 90.3534 8.70144 87.8935C8.7724 86.6635 9.398 85.7508 10.2357 84.9821L8.26968 83.1542C7.08859 84.1462 6.02958 85.6958 5.90795 87.8043C5.67101 91.9114 8.61323 95.5343 13.973 95.8323C19.3986 96.1339 22.5334 92.981 22.7716 88.8519Z" fill="#666666"/>
<path d="M26.2502 70.4972L27.2985 67.0219L19.7979 68.8065C19.6408 66.8137 18.5811 65.2231 16.1937 64.5297C12.581 63.4804 10.6862 65.7248 9.69507 69.0106L8.05594 74.4448L23.6899 78.9855L24.6302 75.8682L18.7146 74.1501L19.369 71.9807L26.2502 70.4972ZM16.2428 73.4322L11.4681 72.0454L12.078 70.0234C12.6879 68.0014 13.5823 67.0929 15.2725 67.5838C16.9626 68.0747 17.4626 69.3882 16.8527 71.4102L16.2428 73.4322Z" fill="#666666"/>
<path d="M15.0599 55.1414L29.321 62.9937L34.3992 54.1132L32.0095 52.7974L28.5476 58.8514L24.7318 56.7504L27.5712 51.7849L25.1815 50.4691L22.3421 55.4346L19.0466 53.6201L22.3884 47.7761L20.018 46.4709L15.0599 55.1414Z" fill="#666666"/>
<path d="M39.568 41.4769L43.4801 43.3891L45.7775 40.8692L30.0153 33.9982L27.4363 36.827L36.1579 51.4203L38.3812 48.9817L36.0107 45.3786L39.568 41.4769ZM37.1924 40.328L34.5837 43.1893L33.5706 41.656C32.6385 40.1645 31.5609 38.6039 30.5034 37.1194L30.5627 37.0544C32.2262 37.8416 33.9132 38.7664 35.5271 39.51L37.1924 40.328Z" fill="#666666"/>
<path d="M43.7212 25.5023L51.7061 36.4793L54.373 34.6114L46.3881 23.6343L50.1722 20.9839L48.5804 18.7956L38.3813 25.9392L39.9731 28.1275L43.7212 25.5023Z" fill="#666666"/>
<path d="M55.5071 15.1993L62.6553 29.8261L65.6014 28.4397L58.4532 13.813L55.5071 15.1993Z" fill="#666666"/>
<path d="M66.8118 10.2979L71.0173 26.0253L74 25.2574L72.3121 18.9451C71.8291 17.1386 71.0662 15.2224 70.4624 13.5605L70.5689 13.5331L73.0704 16.501L79.8802 23.7434L83.076 22.9205L78.8705 7.1931L75.8878 7.96107L77.5643 14.2308C78.0417 16.0161 78.833 18.0385 79.441 19.6312L79.3345 19.6586L76.8486 16.664L70.0289 9.46959L66.8118 10.2979Z" fill="#666666"/>
<path d="M96.2394 22.3474C98.5274 22.336 100.393 21.4467 101.509 20.3631L101.471 13.0152L95.6853 13.0441L95.6991 15.7061L98.581 15.6917L98.5976 18.9036C98.1378 19.3239 97.3468 19.5259 96.5548 19.5298C93.3649 19.5458 91.7259 17.4199 91.7076 13.878C91.6895 10.38 93.5706 8.25861 96.2765 8.24509C97.7725 8.23761 98.6776 8.82709 99.4735 9.59313L101.201 7.51647C100.139 6.44376 98.5061 5.43991 96.1521 5.45167C91.8402 5.47322 88.3584 8.63667 88.3862 14.0046C88.4143 19.4385 91.7734 22.3698 96.2394 22.3474Z" fill="#666666"/>
<path d="M123.115 22.5658L122.831 26.8774L126.066 27.9567L126.429 10.9168L122.798 9.70528L112.522 23.4379L115.652 24.4823L118.106 20.8947L123.115 22.5658ZM123.275 19.9524L119.602 18.7269L120.645 17.1963C121.679 15.7558 122.723 14.1559 123.703 12.6044L123.786 12.6323C123.69 14.4554 123.474 16.3546 123.399 18.1154L123.275 19.9524Z" fill="#666666"/>
<path d="M146.243 20.43L136.104 33.1672L138.548 35.0409L142.617 29.9288C143.782 28.4657 144.864 26.7177 145.838 25.247L145.925 25.314L145.056 29.0545L143.367 38.7347L145.986 40.7422L156.125 28.0049L153.681 26.1312L149.639 31.2089C148.488 32.6548 147.337 34.4888 146.422 35.9213L146.335 35.8544L147.235 32.11L148.879 22.4508L146.243 20.43Z" fill="#666666"/>
<path d="M163.236 35.0059L150.423 45.0484L156.88 52.9824L159.028 51.2996L154.625 45.8908L158.054 43.2038L161.664 47.64L163.812 45.9572L160.201 41.521L163.162 39.2004L167.411 44.4215L169.541 42.7523L163.236 35.0059Z" fill="#666666"/>
<path d="M174.382 49.2937L160.726 58.6215L162.356 62.2545L170.477 60.6864C171.797 60.4037 172.989 60.1044 174.219 59.8365L174.255 59.9168C173.205 60.5861 172.193 61.2868 171.09 62.0513L164.446 66.9111L166.103 70.6043L182.282 66.8965L181.012 64.0664L173.199 66.0525C171.545 66.5037 169.85 66.9723 168.135 67.4496L168.09 67.3492C169.562 66.33 171.042 65.3308 172.433 64.3464L178.949 59.47L177.814 56.941L169.749 58.3651C168.05 58.7159 166.31 59.0841 164.559 59.4812L164.523 59.4009C166.04 58.482 167.467 57.5779 168.983 56.659L175.742 52.3245L174.382 49.2937Z" fill="#666666"/>
<path d="M167.756 96.7977C167.703 98.931 168.451 100.666 170.023 102.046L172.09 100.379C171.166 99.4767 170.533 98.3832 170.569 96.9756C170.633 94.4024 172.808 92.7824 176.349 92.8679C179.846 92.9523 181.911 94.8506 181.85 97.3139C181.819 98.5455 181.223 99.4774 180.411 100.272L182.435 102.037C183.584 101.009 184.591 99.4266 184.644 97.3153C184.747 93.2026 181.689 89.6738 176.323 89.5443C170.89 89.4132 167.86 92.663 167.756 96.7977Z" fill="#666666"/>
<path d="M165.26 112.628C164.195 116.465 165.723 119.265 170.952 120.662L179.602 122.975L180.438 119.965L171.511 117.578C168.217 116.698 167.462 115.221 167.98 113.356C168.498 111.49 169.888 110.678 173.182 111.558L182.109 113.944L182.98 110.807L174.33 108.495C169.101 107.097 166.319 108.813 165.26 112.628Z" fill="#666666"/>
<path d="M175.806 131.809L161.417 124.194L156.67 132.831L159.081 134.107L162.26 128.323L174.238 134.662L175.806 131.809Z" fill="#666666"/>
<path d="M162.086 147.962L151.671 139.257L149.536 141.716L159.952 150.421L156.923 153.91L159 155.645L167.162 146.241L165.086 144.506L162.086 147.962Z" fill="#666666"/>
<path d="M137.673 151.804C134.433 154.118 133.876 157.245 137.1 161.593L142.433 168.785L144.975 166.97L139.472 159.548C137.441 156.808 137.775 155.191 139.351 154.066C140.926 152.941 142.526 153.178 144.557 155.917L150.06 163.339L152.71 161.447L147.377 154.255C144.153 149.907 140.896 149.503 137.673 151.804Z" fill="#666666"/>
<path d="M119.113 161.807L115.74 163.149L121.822 167.903C120.362 169.265 119.78 171.083 120.729 173.381C122.165 176.858 125.104 176.943 128.293 175.675L133.568 173.577L127.352 158.53L124.326 159.734L126.678 165.427L124.573 166.265L119.113 161.807ZM127.661 167.806L129.559 172.401L127.597 173.182C125.634 173.963 124.365 173.828 123.693 172.202C123.021 170.575 123.736 169.367 125.698 168.587L127.661 167.806Z" fill="#666666"/>
<path d="M113.837 180.238L111.17 164.178L101.068 165.793L101.515 168.484L108.402 167.383L109.115 171.68L103.467 172.584L103.914 175.275L109.562 174.371L110.179 178.083L103.531 179.146L103.974 181.815L113.837 180.238Z" fill="#666666"/>
</svg>
