<svg width="136" height="30" viewBox="0 0 136 30" fill="none" xmlns="http://www.w3.org/2000/svg">
<g clip-path="url(#clip0_750_579)">
<path d="M9.38418 20.1911H7.85616C3.94903 20.1911 0.707782 17.1755 0.103632 13.2254C0.0683528 13.2393 0.0352789 6.25495 0 6.26893V30H2.45188C6.28184 30 9.38859 26.6092 9.38859 22.4283C9.38859 22.3747 9.38638 20.247 9.38418 20.1934V20.1911Z" fill="#29C684"/>
<path d="M1.53243 0.344908H0V11.8877C0 12.3421 0.0352789 12.7896 0.103632 13.2254C0.709987 17.1755 3.94903 20.1911 7.85616 20.1911H9.38859V8.64833C9.38859 4.06199 5.87172 0.344908 1.53243 0.344908Z" fill="#003046"/>
<path d="M16.5171 3.81263C16.3606 3.62153 16.1996 3.43277 16.0298 3.25099C14.1997 1.31671 11.803 0.349569 9.40401 0.344908C9.40401 0.344908 9.3996 0.344908 9.39519 0.344908C9.39078 0.344908 9.39078 0.344908 9.38637 0.344908H1.53241C5.87171 0.344908 9.38857 4.06199 9.38857 8.64833V20.1911C9.38857 20.1911 9.39298 20.1911 9.39739 20.1911C9.39959 20.1911 9.4018 20.1911 9.40401 20.1911C11.8008 20.1864 14.1975 19.217 16.0276 17.285C16.1996 17.1032 16.3606 16.9145 16.5149 16.7234C19.5268 13.0156 19.5268 7.52039 16.5149 3.81263H16.5171Z" fill="#32C4C1"/>
<path d="M131.883 1.80144C130.735 1.03705 129.434 0.633884 128.12 0.633884H119.668V19.9021H128.12C129.434 19.9021 130.735 19.499 131.883 18.7346C134.421 17.045 135.998 13.801 135.998 10.268C135.998 6.73503 134.421 3.49103 131.883 1.80144ZM131.229 17.6346C130.263 18.2778 129.218 18.6017 128.12 18.6017H120.898V1.93428H128.12C129.218 1.93428 130.263 2.26054 131.229 2.90142C133.414 4.35563 134.77 7.17781 134.77 10.268C134.77 13.3582 133.414 16.1804 131.229 17.6346Z" fill="#003046"/>
<path d="M94.9156 19.168C91.2731 19.168 88.6271 16.6208 88.6271 13.1112V0.633884H87.4673V13.1112C87.4673 17.2174 90.5983 20.1981 94.9156 20.1981C96.9948 20.1981 98.8889 19.4873 100.252 18.1986C101.612 16.9098 102.362 15.1084 102.362 13.1228V0.633884H101.204V12.9038V13.1158C101.204 16.6208 98.5603 19.168 94.9156 19.168Z" fill="#003046"/>
<path d="M116.365 0.633884L111.016 9.09578L105.667 0.633884H104.185L110.275 10.268L104.185 19.9021H105.667L111.016 11.4426L116.365 19.9021H117.849L111.757 10.268L117.849 0.633884H116.365Z" fill="#003046"/>
<path d="M78.652 4.99884C77.7943 3.44908 76.5882 2.21627 75.0734 1.33535C73.552 0.449779 71.8167 0 69.9161 0C68.0154 0 66.2802 0.449779 64.7588 1.33535C63.2418 2.2186 62.0379 3.45141 61.1802 4.99884C60.3202 6.54859 59.8837 8.32207 59.8837 10.2703C59.8837 12.2186 60.3202 13.9921 61.1802 15.5418C62.0379 17.0916 63.244 18.3244 64.7588 19.2053C65.1953 19.4593 65.6473 19.6761 66.117 19.8578C67.2878 20.3099 68.5579 20.5407 69.9161 20.5407C71.2743 20.5407 72.5444 20.3099 73.7152 19.8578C74.1848 19.6761 74.6391 19.4593 75.0734 19.2053C76.5882 18.3221 77.7943 17.0893 78.652 15.5418C79.5119 13.9921 79.9485 12.2186 79.9485 10.2703C79.9485 8.32207 79.5119 6.54859 78.652 4.99884ZM74.5817 13.2393C74.1187 14.1203 73.4726 14.8171 72.659 15.3111C71.8454 15.8052 70.9215 16.0569 69.9161 16.0569C68.9106 16.0569 67.9868 15.8052 67.1732 15.3111C66.3595 14.8171 65.7135 14.1203 65.2505 13.2393C64.7896 12.3608 64.5537 11.3633 64.5537 10.2727C64.5537 9.18201 64.7874 8.16593 65.2505 7.29434C65.7135 6.42274 66.3595 5.72827 67.1732 5.23421C67.9868 4.74015 68.9106 4.48846 69.9161 4.48846C70.9215 4.48846 71.8454 4.74015 72.659 5.23421C73.4726 5.72827 74.1187 6.42041 74.5817 7.29434C75.0448 8.16826 75.2785 9.17036 75.2785 10.2727C75.2785 11.375 75.0448 12.3608 74.5817 13.2393Z" fill="#003046"/>
<path d="M25.6742 0.340246H21.5973V20.1958H22.3933C24.6445 20.1958 26.4702 18.2591 26.4702 15.8728V0.340246H25.6742Z" fill="#003046"/>
<path d="M34.3065 0.340246H30.2296V20.1958H31.0255C33.2768 20.1958 35.1024 18.2591 35.1024 15.8728V0.340246H34.3065Z" fill="#003046"/>
<path d="M52.5633 0.633884V13.3069L43.3621 0.633884H38.8597V19.9021H39.5939C41.6754 19.9021 43.3621 18.1123 43.3621 15.9054V7.22209L52.5633 19.8951V19.9021H52.5699H53.2976C55.379 19.9021 57.0658 18.1123 57.0658 15.9054V0.633884H52.5633Z" fill="#003046"/>
</g>
<defs>
<clipPath id="clip0_750_579">
<rect width="136" height="30" fill="white"/>
</clipPath>
</defs>
</svg>
