<svg width="76" height="76" viewBox="0 0 76 76" fill="none" xmlns="http://www.w3.org/2000/svg">
<circle cx="37.1555" cy="29.5581" r="26.8667" stroke="black" stroke-width="2"/>
<circle cx="37.1556" cy="29.5596" r="19.2667" stroke="black" stroke-width="2"/>
<path d="M18.9077 50.4727L10.3424 66.4612C10.2164 66.6965 10.4374 66.9669 10.6931 66.8902L21.6063 63.6162C21.7581 63.5707 21.9192 63.6511 21.974 63.7998L25.8029 74.1927C25.8922 74.4351 26.2257 74.4588 26.3484 74.2315L35.7834 56.7532" stroke="black" stroke-width="2"/>
<path d="M56.2214 49.2852L65.9469 66.4478C66.0802 66.683 65.8587 66.9607 65.5997 66.883L54.7104 63.6162C54.5585 63.5707 54.3975 63.6511 54.3427 63.7998L50.5137 74.1927C50.4244 74.4351 50.0909 74.4588 49.9682 74.2315L40.5332 56.7532" stroke="black" stroke-width="2"/>
<path d="M32.089 36.0506C32.089 35.7396 32.212 35.4411 32.431 35.2203L37.3117 30.3008C37.9428 29.6488 38.4249 29.1217 38.7578 28.7194C39.0907 28.3102 39.3439 27.9149 39.5172 27.5334C39.6976 27.145 39.7877 26.7358 39.7877 26.3058C39.7877 25.8203 39.6664 25.3937 39.4236 25.0261C39.1809 24.6585 38.8479 24.3741 38.4249 24.173C38.0018 23.9719 37.5267 23.8713 36.9996 23.8713C36.4447 23.8713 35.9592 23.9823 35.5431 24.2042C35.1338 24.4262 34.8148 24.7383 34.5859 25.1406C34.5271 25.2453 34.4761 25.355 34.4328 25.4695C34.221 26.0307 33.7667 26.5346 33.1669 26.5346C32.5703 26.5346 32.0688 26.0476 32.1919 25.4638C32.2923 24.9876 32.4661 24.547 32.7133 24.1418C33.1363 23.4482 33.7259 22.9107 34.4819 22.5292C35.2379 22.1478 36.091 21.957 37.0412 21.957C37.9914 21.957 38.8375 22.1443 39.5797 22.5188C40.3287 22.8864 40.9113 23.3962 41.3275 24.0482C41.7506 24.7001 41.9656 25.4319 41.9725 26.2433C41.9656 26.819 41.8546 27.3739 41.6396 27.9079C41.4246 28.435 41.057 29.0246 40.5368 29.6765C40.0166 30.3216 39.2814 31.1123 38.3312 32.0486L35.2981 35.123C35.2817 35.1396 35.2726 35.1619 35.2726 35.1852C35.2726 35.2341 35.3122 35.2737 35.3611 35.2737H41.2443C41.7844 35.2737 42.2222 35.7116 42.2222 36.2517C42.2222 36.7918 41.7844 37.2296 41.2443 37.2296H33.268C32.6169 37.2296 32.089 36.7018 32.089 36.0506Z" fill="black"/>
</svg>
