<svg width="76" height="76" viewBox="0 0 76 76" fill="none" xmlns="http://www.w3.org/2000/svg">
<path d="M67.2168 66.1281V19.2069C67.2168 18.3205 66.149 17.8723 65.5164 18.4932L17.8627 65.2644C17.2237 65.8916 17.6678 66.9781 18.5632 66.9781H66.3668C66.8363 66.9781 67.2168 66.5975 67.2168 66.1281Z" stroke="black" stroke-width="2"/>
<circle cx="59.2095" cy="36.0205" r="0.946299" fill="black"/>
<circle cx="59.2097" cy="48.2315" r="0.946299" fill="black"/>
<circle cx="59.2127" cy="60.8994" r="0.946299" fill="black"/>
<circle cx="47.3904" cy="48.2315" r="0.946299" fill="black"/>
<circle cx="47.3904" cy="60.8994" r="0.946299" fill="black"/>
<circle cx="35.5515" cy="60.8994" r="0.946299" fill="black"/>
<path d="M9.01723 57.9915L58.207 9.26176L66.7587 18.2207L17.5427 66.5168L9.01723 57.9915Z" fill="#F1F1F1" stroke="black" stroke-width="2"/>
<path d="M27.4727 32.437C27.4727 32.437 16.5902 36.2241 25.5802 48.5256L45.9253 28.6514C43.875 26.7588 39.3015 23.1625 33.6238 23.9195C27.946 24.6766 26.5265 28.6521 27.4727 32.437Z" fill="#F1F1F1" stroke="black" stroke-width="2"/>
<path d="M33.4142 41.4297H17.5366V57.0436L33.4142 41.4297Z" fill="#F1F1F1" stroke="black" stroke-width="2"/>
<path d="M55.388 19.1932C52.0761 15.4077 42.312 10.0791 34.5697 20.1401C32.5182 22.8059 31.8106 26.3375 33.1381 29.5095C33.2949 29.8842 33.3681 30.2924 33.3165 30.6953C32.6892 35.5977 32.8622 39.3417 34.0962 40.4876L55.388 19.1932Z" fill="#F1F1F1" stroke="black" stroke-width="2"/>
<path d="M41.6672 22.0299C36.9578 26.3119 38.3545 32.1212 40.2471 34.3292L52.5496 22.032C51.6034 20.1416 46.872 17.2974 41.6672 22.0299Z" fill="#F1F1F1" stroke="black" stroke-width="2"/>
<rect x="61.1235" y="12" width="1.8926" height="69.4712" transform="rotate(45 61.1235 12)" fill="black"/>
</svg>
