<svg width="76" height="76" viewBox="0 0 76 76" fill="none" xmlns="http://www.w3.org/2000/svg">
<circle cx="38.0001" cy="38.0016" r="29.4" stroke="black" stroke-width="2"/>
<path d="M23.6445 38.8438C23.7853 43.9104 26.8534 54.0438 38.0001 54.0438C49.1468 54.0438 52.2149 43.9104 52.3556 38.8438" stroke="black" stroke-width="2" stroke-linecap="round"/>
<path d="M61.9757 30.0433C61.7865 30.2095 61.5031 30.2089 61.3145 30.042L60.1752 29.034C54.9566 24.4361 51.5112 21.4043 51.5112 17.6798C51.5112 13.9553 53.9635 11.7617 57.0846 11.7617C59.3709 11.7617 60.5785 14.0047 61.2674 15.5002C61.4326 15.8587 61.9091 15.8853 62.092 15.5355C62.9814 13.8344 63.8182 11.7617 66.2046 11.7617C69.3256 11.7617 71.7779 13.9553 71.7779 17.6798C71.7779 21.4043 68.3326 24.4361 63.1139 29.044L61.9757 30.0433Z" fill="#F1F1F1" stroke="black" stroke-width="2" stroke-miterlimit="8" stroke-linecap="square"/>
<rect x="28.7112" y="28.7109" width="2.53333" height="6.75556" rx="1.26667" fill="black"/>
<rect x="44.7556" y="28.7109" width="2.53333" height="6.75556" rx="1.26667" fill="black"/>
</svg>
