<svg width="76" height="76" viewBox="0 0 76 76" fill="none" xmlns="http://www.w3.org/2000/svg">
<mask id="path-1-outside-1_1056_781" maskUnits="userSpaceOnUse" x="23.333" y="8.13281" width="30" height="17" fill="black">
<rect fill="white" x="23.333" y="8.13281" width="30" height="17"/>
<path fill-rule="evenodd" clip-rule="evenodd" d="M28.333 10.1328C26.6762 10.1328 25.333 11.476 25.333 13.1328V19.7995C25.333 21.3278 26.4759 22.5892 27.9536 22.7757V13.2422C27.9536 12.6899 28.4013 12.2422 28.9536 12.2422H47.0456C47.5979 12.2422 48.0456 12.6899 48.0456 13.2422V22.7757C49.5234 22.5893 50.6663 21.3279 50.6663 19.7995V13.1328C50.6663 11.476 49.3232 10.1328 47.6663 10.1328H28.333Z"/>
</mask>
<path fill-rule="evenodd" clip-rule="evenodd" d="M28.333 10.1328C26.6762 10.1328 25.333 11.476 25.333 13.1328V19.7995C25.333 21.3278 26.4759 22.5892 27.9536 22.7757V13.2422C27.9536 12.6899 28.4013 12.2422 28.9536 12.2422H47.0456C47.5979 12.2422 48.0456 12.6899 48.0456 13.2422V22.7757C49.5234 22.5893 50.6663 21.3279 50.6663 19.7995V13.1328C50.6663 11.476 49.3232 10.1328 47.6663 10.1328H28.333Z" fill="#F1F1F1"/>
<path d="M27.9536 22.7757L27.7032 24.76L29.9536 25.044V22.7757H27.9536ZM48.0456 22.7757H46.0456V25.0439L48.2959 24.76L48.0456 22.7757ZM27.333 13.1328C27.333 12.5805 27.7807 12.1328 28.333 12.1328V8.13281C25.5716 8.13281 23.333 10.3714 23.333 13.1328H27.333ZM27.333 19.7995V13.1328H23.333V19.7995H27.333ZM28.204 20.7915C27.7135 20.7296 27.333 20.3074 27.333 19.7995H23.333C23.333 22.3482 25.2383 24.4489 27.7032 24.76L28.204 20.7915ZM29.9536 22.7757V13.2422H25.9536V22.7757H29.9536ZM29.9536 13.2422C29.9536 13.7945 29.5059 14.2422 28.9536 14.2422V10.2422C27.2968 10.2422 25.9536 11.5853 25.9536 13.2422H29.9536ZM28.9536 14.2422H47.0456V10.2422H28.9536V14.2422ZM47.0456 14.2422C46.4933 14.2422 46.0456 13.7945 46.0456 13.2422H50.0456C50.0456 11.5853 48.7024 10.2422 47.0456 10.2422V14.2422ZM46.0456 13.2422V22.7757H50.0456V13.2422H46.0456ZM48.6663 19.7995C48.6663 20.3074 48.2858 20.7296 47.7953 20.7915L48.2959 24.76C50.7609 24.4491 52.6663 22.3483 52.6663 19.7995H48.6663ZM48.6663 13.1328V19.7995H52.6663V13.1328H48.6663ZM47.6663 12.1328C48.2186 12.1328 48.6663 12.5805 48.6663 13.1328H52.6663C52.6663 10.3714 50.4278 8.13281 47.6663 8.13281V12.1328ZM28.333 12.1328H47.6663V8.13281H28.333V12.1328Z" fill="black" mask="url(#path-1-outside-1_1056_781)"/>
<rect x="6.06641" y="19.5781" width="63.8667" height="45.2889" rx="2" fill="#F1F1F1" stroke="black" stroke-width="2"/>
<rect x="14.5107" y="17.8867" width="3.91111" height="48.6667" rx="1" fill="#F1F1F1" stroke="black" stroke-width="2"/>
<rect x="57.5776" y="17.8867" width="3.91111" height="48.6667" rx="1" fill="#F1F1F1" stroke="black" stroke-width="2"/>
<rect x="24.4913" y="33.047" width="10.1333" height="4.93333" rx="1" transform="rotate(-15 24.4913 33.047)" stroke="black" stroke-width="2"/>
<rect x="1.22474" y="-0.707107" width="10.1333" height="4.93333" rx="1" transform="matrix(0.965926 0.258819 0.258819 -0.965926 38.2243 51.5234)" stroke="black" stroke-width="2"/>
</svg>
